<?xml version="1.0" encoding="utf-8"?>
<!-- Generator: Adobe Illustrator 19.1.0, SVG Export Plug-In . SVG Version: 6.00 Build 0)  -->
<svg version="1.1" id="Layer_1" xmlns="http://www.w3.org/2000/svg" xmlns:xlink="http://www.w3.org/1999/xlink" x="0px" y="0px"
	 viewBox="0 0 310 230.63866" style="enable-background:new 0 0 310 230.63866;" xml:space="preserve">
<style type="text/css">
	.st0{fill:#F04E23;stroke:#004739;stroke-width:5;stroke-linecap:round;stroke-linejoin:round;stroke-miterlimit:10;}
	.st1{fill:#FFFFFF;stroke:#004739;stroke-width:5;stroke-linecap:round;stroke-linejoin:round;stroke-miterlimit:10;}
	.st2{fill:#00B19A;stroke:#004739;stroke-width:5;stroke-linecap:round;stroke-linejoin:round;stroke-miterlimit:10;}
	.st3{fill:#FFFFFF;stroke:#000000;stroke-width:5;stroke-linecap:round;stroke-linejoin:round;stroke-miterlimit:10;}
	.st4{fill:#81CDC1;}
	.st5{fill:#F05123;}
	.st6{fill:#03B19B;}
</style>
<g id="car_2_">
	<path class="st2" d="M216.74855,40.95932H31.3268c-8.20819,0-14.86218,6.65405-14.86218,14.86224v91.99554
		c0,8.20813,6.65399,14.86218,14.86218,14.86218h245.78053c8.20819,0,14.86218-6.65405,14.86218-14.86218v-31.63678
		C291.96951,74.63693,258.29196,40.95932,216.74855,40.95932z M273.96951,110.13797c0,5.9765-4.84485,10.82135-10.82135,10.82135
		h-40.35732c-5.97644,0-10.82135-4.84485-10.82135-10.82135v-40.3573c0-5.97644,4.84491-10.82135,10.82135-10.82135h0.00006
		c28.2652,0,51.1786,22.91345,51.1786,51.17859V110.13797z"/>
	<circle class="st3" cx="86.04281" cy="162.67932" r="27.00002"/>
	<circle class="st1" cx="86.04281" cy="162.67932" r="27.00002"/>
	<circle class="st3" cx="224.57706" cy="162.67932" r="27.00002"/>
	<circle class="st1" cx="224.57706" cy="162.67932" r="27.00002"/>
	<path class="st0" d="M18.0305,155.48529h-0.00002c-5.77326,0-10.45342-4.68016-10.45342-10.45341V66.275
		c0-5.77326,4.68016-10.45342,10.45342-10.45342h0.00002c5.77327,0,10.45342,4.68016,10.45342,10.45342v78.75687
		C28.48392,150.80513,23.80376,155.48529,18.0305,155.48529z"/>
	<path class="st0" d="M291.96951,155.48529L291.96951,155.48529c-5.77328,0-10.45343-4.68016-10.45343-10.45341v-18.70514
		c0-5.77327,4.68015-10.45342,10.45343-10.45342l0,0c5.77328,0,10.45343,4.68015,10.45343,10.45342v18.70514
		C302.42294,150.80513,297.7428,155.48529,291.96951,155.48529z"/>
	<g>
		<path class="st4" d="M96.39718,63.02935l14.34059,14.3406c1.16597,1.16596,1.16597,3.05637,0,4.22234l0,0
			c-1.16597,1.16597-3.05637,1.16597-4.22234,0L92.17484,67.25169c-1.16597-1.16597-3.05637-1.16597-4.22234,0H87.9525
			c-1.16596,1.16597-1.16596,3.05637,0,4.22234l14.3406,14.34059c1.16596,1.16597,1.16596,3.05637,0,4.22234l-0.00001,0.00001
			c-1.16596,1.16596-3.05637,1.16596-4.22234,0l-14.34059-14.3406c-1.16596-1.16596-3.05637-1.16596-4.22234,0v0.00001
			c-1.16597,1.16596-1.16597,3.05637,0,4.22234l16.45176,16.45176l3.83095,3.83095c2.68941,2.68941,7.04981,2.68941,9.73922,0
			l0.00001-0.00001c1.16597-1.16596,3.05637-1.16596,4.22234,0l24.13628,24.13629c1.97446,1.97445,5.17567,1.97445,7.15012,0
			l0.00002-0.00001c1.97444-1.97445,1.97444-5.17567,0-7.15012l-24.13629-24.13629c-1.16596-1.16596-1.16596-3.05637,0-4.22233
			l0.00001-0.00001c2.68941-2.68941,2.68941-7.04981,0-9.73922l-3.83095-3.83096l-16.45177-16.45176
			c-1.16596-1.16597-3.05637-1.16597-4.22233,0l-0.00001,0C95.23122,59.97298,95.23122,61.86338,96.39718,63.02935z"/>
		<path class="st4" d="M161.00049,87.05616l-12.03833,12.03833c-3.36113,3.36113-8.81059,3.36113-12.17172,0v-0.00001
			c-0.49425-0.49425-1.29558-0.49425-1.78983,0l-25.35255,25.35254c-1.97445,1.97445-5.17567,1.97445-7.15012,0l-0.00001-0.00001
			c-1.97445-1.97445-1.97445-5.17567,0-7.15012l26.24745-26.24746l24.06172-24.06172c1.7683-1.76829,4.63525-1.76829,6.40353,0
			l1.78984,1.78985C166.04799,73.82506,166.04799,82.00866,161.00049,87.05616z"/>
	</g>
</g>
</svg>
